<?xml version="1.0" encoding="UTF-8"?>
<svg id="Capa_2" data-name="Capa 2" xmlns="http://www.w3.org/2000/svg" viewBox="0 0 1724.57 418.56">
  <defs>
    <style>
      .cls-1 {
        fill: #c7c7c7;
      }
    </style>
  </defs>
  <g id="Capa_1-2" data-name="Capa 1">
    <g>
      <path class="cls-1" d="M532.15,68.7l-7.73,3.18c-9.1-11.83-18.81-20.32-29.12-25.48-10.31-5.15-22.29-7.73-35.94-7.73-26.09,0-46.26,9.78-60.51,29.35-14.26,19.56-21.38,50.12-21.38,91.67s7.28,76.06,21.84,98.04c14.56,21.99,37.15,32.98,67.79,32.98,13.95,0,26.23-2.42,36.85-7.28,10.61-4.85,20.62-12.28,30.03-22.29,5.46,1.82,9.63,4.55,12.51,8.19,2.88,3.64,4.32,7.73,4.32,12.28,0,6.07-3.87,12.13-11.6,18.2-7.73,6.07-18.2,11.15-31.39,15.24-13.19,4.09-28.14,6.14-44.81,6.14-43.38,0-75.68-12.51-96.91-37.53-21.23-25.02-31.85-62.71-31.85-113.06,0-37.31,5.61-67.94,16.83-91.9,11.22-23.96,26.76-41.7,46.63-53.23,19.86-11.52,42.84-17.29,68.93-17.29,19.11,0,34.95,2.05,47.54,6.14,12.58,4.09,22.07,9.18,28.44,15.24,6.37,6.07,9.55,12.28,9.55,18.65,0,5.46-1.75,9.71-5.23,12.74-3.49,3.04-8.42,5.62-14.79,7.73Z"/>
      <path class="cls-1" d="M595.84,292.99h11.83c.6-10.92.98-22.9,1.14-35.94.15-13.04.23-25.63.23-37.76V48.23c0-9.7-1.29-15.99-3.87-18.88-2.58-2.88-7.36-4.32-14.33-4.32h-5c-.91-2.73-1.59-5.23-2.05-7.51-.46-2.27-.68-4.47-.68-6.6,0-7.28,4.24-10.92,12.74-10.92h51.41c0,11.22-.23,24.87-.68,40.95-.46,16.08-.68,31.39-.68,45.95v35.03c8.79-8.19,18.72-14.4,29.8-18.65,11.07-4.24,22.67-6.37,34.8-6.37,21.53,0,37.99,5.69,49.36,17.06s17.06,29.96,17.06,55.73v100.09c0,6.68.46,11.68,1.36,15.01.91,3.34,2.42,5.54,4.55,6.6,2.12,1.07,5.15,1.59,9.1,1.59h7.73c.6,2.13,1.14,4.25,1.59,6.37.46,2.12.68,4.25.68,6.37,0,7.28-4.09,10.92-12.28,10.92h-50.96c0-7.58.07-16.45.23-26.62.15-10.16.38-20.7.68-31.62.3-10.92.46-21.08.46-30.48v-34.12c0-16.38-1.52-29.49-4.55-39.35-3.04-9.85-7.96-16.98-14.79-21.38-6.82-4.39-15.85-6.6-27.07-6.6-16.08,0-28.06,4.71-35.94,14.1-7.89,9.4-11.83,23.66-11.83,42.77v71.2c0,13.19.3,26.01.91,38.44h21.38c.91,2.13,1.59,4.25,2.05,6.37.46,2.12.68,4.25.68,6.37,0,7.28-4.09,10.92-12.28,10.92h-72.79c-.91-2.42-1.59-4.62-2.05-6.6-.46-1.97-.68-4.02-.68-6.14,0-7.28,4.24-10.92,12.74-10.92Z"/>
      <path class="cls-1" d="M1003.48,312.1l-34.12,4.55c-2.12-3.03-4.02-6.75-5.69-11.15-1.67-4.39-2.81-8.42-3.41-12.06-7.89,9.71-17.06,16.76-27.53,21.16-10.46,4.39-22.52,6.6-36.17,6.6-18.81,0-34.35-5.3-46.63-15.92-12.28-10.61-18.43-26.39-18.43-47.32s7.35-37.15,22.07-48.68c14.71-11.52,37.99-17.29,69.84-17.29h32.3v-12.74c0-15.16-1.67-26.76-5-34.8-3.34-8.03-9.18-13.65-17.52-16.83-8.35-3.19-20.1-4.78-35.26-4.78h-13.2l-6.82,24.57c-2.73,1.22-5.99,2.27-9.78,3.18-3.8.91-7.51,1.37-11.15,1.37-3.34,0-6.6-1.29-9.78-3.87-3.19-2.57-5.77-5.91-7.73-10.01-1.98-4.09-2.96-8.26-2.96-12.51,0-3.64,1.29-6.75,3.87-9.33,2.57-2.57,7.05-5.23,13.42-7.96,7.88-3.03,17.81-5.69,29.8-7.96,11.98-2.27,24.79-3.41,38.44-3.41,24.87,0,42.84,5.16,53.91,15.47,11.07,10.31,16.61,28.66,16.61,55.05v103.28c0,7.58,1.06,12.51,3.19,14.79,2.12,2.28,5.91,3.41,11.37,3.41h8.64c.6,1.82,1.14,3.64,1.59,5.46.46,1.82.68,3.8.68,5.91,0,3.64-1.07,6.37-3.19,8.19-2.12,1.82-5.91,3.04-11.38,3.64ZM955.71,243.86v-25.48h-37.76c-18.2,0-30.71,3.26-37.54,9.78-6.82,6.53-10.24,15.24-10.24,26.16,0,12.13,3.19,21.46,9.55,27.98,6.37,6.53,15.62,9.78,27.75,9.78,16.38,0,28.51-4.32,36.4-12.97,7.88-8.64,11.83-20.39,11.83-35.26Z"/>
      <path class="cls-1" d="M1056.25,292.99h11.83c.6-12.43.98-25.25,1.14-38.44.15-13.19.23-25.09.23-35.71v-69.15c0-9.7-1.22-15.99-3.64-18.88-2.43-2.88-7.28-4.32-14.56-4.32h-5c-.91-2.73-1.59-5.23-2.05-7.51-.46-2.27-.68-4.47-.68-6.6,0-7.28,4.24-10.92,12.74-10.92h51.41c0,11.22-.23,24.42-.68,39.58-.46,15.17-.68,30.03-.68,44.59v33.21c0,10.62.07,22.52.23,35.71.15,13.19.38,26.01.68,38.44h21.84c.6,2.13,1.14,4.25,1.59,6.37.46,2.12.68,4.25.68,6.37,0,7.28-4.09,10.92-12.28,10.92h-72.79c-.91-2.42-1.59-4.62-2.05-6.6-.46-1.97-.68-4.02-.68-6.14,0-7.28,4.24-10.92,12.74-10.92ZM1084,57.32c-10.62,0-17.9-1.89-21.84-5.69-3.95-3.79-5.91-9.62-5.91-17.52,0-7.28,2.2-12.97,6.6-17.06,4.39-4.09,11.45-6.14,21.16-6.14,10.31,0,17.52,1.9,21.61,5.69,4.09,3.8,6.14,9.63,6.14,17.52,0,7.28-2.2,12.97-6.6,17.06-4.4,4.09-11.45,6.14-21.16,6.14Z"/>
      <path class="cls-1" d="M1170.9,292.99h11.83c.6-12.43.98-25.25,1.14-38.44.15-13.19.23-25.09.23-35.71v-69.15c0-9.7-1.22-15.99-3.64-18.88-2.43-2.88-7.28-4.32-14.56-4.32h-5c-.91-2.73-1.59-5.23-2.05-7.51-.46-2.27-.68-4.47-.68-6.6,0-7.28,4.24-10.92,12.74-10.92h43.68c.6,3.04,1.06,6.82,1.37,11.37.3,4.55.46,8.8.46,12.74,10.01-9.4,20.77-16.53,32.3-21.38,11.52-4.85,23.81-7.28,36.85-7.28,21.53,0,37.99,5.69,49.36,17.06s17.06,29.96,17.06,55.73v100.09c0,6.68.46,11.68,1.37,15.01.91,3.34,2.42,5.54,4.55,6.6,2.12,1.07,5.15,1.59,9.1,1.59h7.73c.91,2.13,1.51,4.25,1.82,6.37.3,2.12.46,4.25.46,6.37,0,7.28-4.09,10.92-12.28,10.92h-50.96c0-7.58.15-16.45.46-26.62.3-10.16.53-20.7.68-31.62.15-10.92.23-21.08.23-30.48v-34.12c0-16.38-1.52-29.49-4.55-39.35-3.04-9.85-7.96-16.98-14.79-21.38-6.82-4.39-15.85-6.6-27.07-6.6-16.38,0-28.44,4.93-36.17,14.79-7.73,9.86-11.6,24.65-11.6,44.36v33.21c0,10.62.07,22.52.23,35.71.15,13.19.38,26.01.68,38.44h21.84c.6,2.13,1.14,4.25,1.59,6.37.46,2.12.68,4.25.68,6.37,0,7.28-4.09,10.92-12.28,10.92h-72.79c-.91-2.42-1.59-4.62-2.05-6.6-.46-1.97-.68-4.02-.68-6.14,0-7.28,4.24-10.92,12.74-10.92Z"/>
      <path class="cls-1" d="M1413.84,292.99h11.83c.6-10.92.98-22.9,1.14-35.94.15-13.04.23-25.63.23-37.76V48.23c0-9.7-1.29-15.99-3.87-18.88-2.58-2.88-7.36-4.32-14.33-4.32h-5c-.91-2.73-1.59-5.23-2.05-7.51-.46-2.27-.68-4.47-.68-6.6,0-7.28,4.24-10.92,12.74-10.92h51.41c0,11.22-.23,24.87-.68,40.95-.46,16.08-.68,31.39-.68,45.95v131.94c0,10.62.07,22.52.23,35.71.15,13.19.38,26.01.68,38.44h21.84c.6,2.13,1.14,4.25,1.59,6.37.45,2.12.68,4.25.68,6.37,0,7.28-4.09,10.92-12.28,10.92h-72.79c-.91-2.42-1.59-4.62-2.05-6.6-.46-1.97-.68-4.02-.68-6.14,0-7.28,4.24-10.92,12.74-10.92Z"/>
      <path class="cls-1" d="M1564.88,388.54c5.15-1.82,10.01-6.22,14.56-13.19,4.55-6.98,8.94-15.55,13.19-25.71,4.24-10.17,8.34-20.86,12.28-32.07v-.68c0-.16-.16-.38-.46-.68-4.55-.6-8.19-1.59-10.92-2.96-2.73-1.37-5.23-4.24-7.51-8.64-2.27-4.39-5.08-11.3-8.42-20.7l-40.95-133.76c-3.04-9.4-6.14-15.7-9.33-18.88-3.18-3.19-8.42-4.78-15.7-4.78h-5c-.91-2.73-1.52-5.23-1.82-7.51-.31-2.27-.46-4.47-.46-6.6,0-3.33.91-5.99,2.73-7.96,1.82-1.97,5-2.96,9.55-2.96h48.68l6.37,30.48c1.21,7.28,3.48,17.06,6.82,29.35,3.33,12.28,7.2,25.78,11.6,40.49,4.39,14.72,9.02,29.2,13.88,43.45,4.85,14.26,9.25,26.84,13.19,37.76,11.83-35.49,21.68-66.42,29.57-92.81,7.88-26.39,13.34-47.61,16.38-63.69h-17.74c-.91-2.42-1.59-4.7-2.05-6.82-.46-2.12-.68-4.39-.68-6.82,0-4.55,1.44-7.58,4.32-9.1,2.88-1.51,7.51-2.27,13.88-2.27h60.96c.91,2.43,1.59,4.71,2.05,6.82.45,2.13.68,4.4.68,6.82,0,3.64-.91,6.45-2.73,8.42-1.82,1.98-5.16,2.96-10.01,2.96h-11.37c-10.32,30.64-20.55,61.27-30.71,91.9-10.17,30.64-20.25,61.27-30.25,91.9-6.98,19.71-13.35,36.24-19.11,49.59-5.76,13.34-11.53,24.18-17.29,32.53-5.77,8.34-12.13,14.56-19.11,18.65-6.98,4.09-15.17,6.6-24.57,7.51h-8.42c-2.89,0-5.54-.16-7.96-.46-9.71-.61-17.22-2.66-22.52-6.14-5.31-3.49-7.96-7.81-7.96-12.97,0-3.95,1.44-7.81,4.32-11.6,2.88-3.8,6.14-6.6,9.78-8.42,3.33,2.42,7.28,4.62,11.83,6.6,4.55,1.97,9.1,3.26,13.65,3.87,2.12.3,4.24.3,6.37,0,2.12-.31,4.24-.61,6.37-.91Z"/>
    </g>
    <g>
      <path class="cls-1" d="M0,316.65V21.87c0-2.46,6.39-.5,7.81-.41,141.03,9.74,182.46,199.14,66.14,273.33-21.98,14.02-47.84,21.3-73.95,21.85Z"/>
      <path class="cls-1" d="M167.76,316.65V20.63c25.25.71,49.7,7.34,71.28,20.41,93.19,56.43,93.44,197.98.51,254.89-21.74,13.31-46.28,19.99-71.79,20.72Z"/>
    </g>
  </g>
</svg>